#!OML:ASF C:\Vicon Data\Big\jianyuan-11\jianyuan\Session 1\male.ASF
:FULLY-SPECIFIED
:DEGREES
42
root -8.508273 15.934172 -20.269642 -10.589168 -6.424221 8.790804
lowerback 3.509416 1.542627 -4.020049 
upperback 6.841803 2.487659 -0.572220 
thorax 4.995896 1.231899 1.688080 
lowerneck -8.412190 -11.584850 -13.096165 
upperneck 21.351868 -16.233322 13.679325 
head 10.455927 -7.010427 4.931354 
rclavicle 0.000000 0.000000 
rhumerus -40.603612 -28.565622 -76.050621 
rradius 38.439487 
rwrist -3.069505 
rhand -16.408467 -0.184232 
rfingers 0.000000 
rthumb 9.806096 -29.935929 
lclavicle 0.000000 0.000000 
lhumerus -16.434998 5.818386 88.524077 
lradius 45.999204 
lwrist -11.620715 
lhand -13.628325 -11.181989 
lfingers 0.000000 
lthumb 12.487490 18.424934 
rfemur -13.539465 -3.005508 29.075909 
rtibia 40.028241 
rfoot -10.348741 -8.249259 
rtoes 18.122457 
lfemur -7.276062 6.399946 -12.923600 
ltibia 70.951946 
lfoot -5.708653 14.211134 
ltoes 22.721624 
43
root -8.530953 15.934717 -20.192757 -10.650329 -6.813335 8.787380
lowerback 3.567842 1.598082 -4.032671 
upperback 6.841470 2.557302 -0.553063 
thorax 4.957239 1.266079 1.712850 
lowerneck -8.433052 -11.555357 -12.981005 
upperneck 21.436801 -16.184965 13.552596 
head 10.459621 -6.987197 4.876353 
rclavicle 0.000000 0.000000 
rhumerus -40.361517 -28.412832 -76.261616 
rradius 38.703739 
rwrist -3.290181 
rhand -16.519538 -0.123066 
rfingers 0.000000 
rthumb 9.698886 -29.879743 
lclavicle 0.000000 0.000000 
lhumerus -16.589826 6.594358 88.316602 
lradius 44.885524 
lwrist -12.104107 
lhand -13.577392 -11.155818 
lfingers 0.000000 
lthumb 12.536534 18.448087 
rfemur -13.099800 -2.692457 29.211719 
rtibia 39.963997 
rfoot -10.534428 -8.138414 
rtoes 18.177284 
lfemur -7.930295 5.911130 -13.118442 
ltibia 70.970158 
lfoot -5.648988 13.952353 
ltoes 19.954903 
44
root -8.563045 15.931376 -20.114981 -10.867620 -7.231351 8.779500
lowerback 3.773585 1.714041 -4.072540 
upperback 6.855311 2.708254 -0.578007 
thorax 4.846987 1.344842 1.701913 
lowerneck -8.350369 -11.554388 -12.922646 
upperneck 21.497054 -16.215130 13.628243 
head 10.472430 -6.985992 4.895996 
rclavicle 0.000000 0.000000 
rhumerus -40.255261 -28.405117 -76.507076 
rradius 39.053622 
rwrist -3.708715 
rhand -16.608365 -0.039452 
rfingers 0.000000 
rthumb 9.613198 -29.800081 
lclavicle 0.000000 0.000000 
lhumerus -16.785997 7.203720 88.047895 
lradius 43.798238 
lwrist -12.554267 
lhand -13.596071 -10.980067 
lfingers 0.000000 
lthumb 12.518576 18.624981 
rfemur -12.444650 -2.320349 29.397210 
rtibia 39.882993 
rfoot -10.612248 -8.074817 
rtoes 17.983009 
lfemur -8.354371 5.496106 -13.208702 
ltibia 70.881828 
lfoot -5.157445 13.744617 
ltoes 15.508180 
45
root -8.583848 15.929801 -20.037848 -10.932223 -7.641035 8.697098
lowerback 3.814407 1.782035 -3.937677 
upperback 6.864629 2.798432 -0.586582 
thorax 4.833697 1.396976 1.616495 
lowerneck -8.329951 -11.539900 -12.887595 
upperneck 21.558408 -16.218507 13.697331 
head 10.495001 -6.973808 4.918043 
rclavicle 0.000000 0.000000 
rhumerus -40.035229 -28.345607 -76.785481 
rradius 39.309527 
rwrist -3.798036 
rhand -16.649176 -0.277490 
rfingers 0.000000 
rthumb 9.573853 -30.039911 
lclavicle 0.000000 0.000000 
lhumerus -16.931023 7.890690 87.803473 
lradius 42.666163 
lwrist -13.032967 
lhand -13.605951 -10.769672 
lfingers 0.000000 
lthumb 12.509107 18.835843 
rfemur -11.988209 -2.114999 29.597661 
rtibia 39.805588 
rfoot -10.652010 -7.904877 
rtoes 17.836763 
lfemur -8.936722 4.911934 -13.317239 
ltibia 70.801748 
lfoot -5.177085 13.414368 
ltoes 13.507608 
46
root -8.602693 15.931100 -19.962798 -10.964673 -8.021995 8.640018
lowerback 3.867704 1.840325 -3.887542 
upperback 6.860795 2.868272 -0.511682 
thorax 4.793609 1.431959 1.663521 
lowerneck -8.447429 -11.527936 -12.856691 
upperneck 21.699377 -16.172184 13.531772 
head 10.542419 -6.957361 4.857347 
rclavicle 0.000000 0.000000 
rhumerus -39.772120 -28.184641 -76.930522 
rradius 39.531287 
rwrist -4.021269 
rhand -16.986297 -0.167135 
rfingers 0.000000 
rthumb 9.248612 -29.944266 
lclavicle 0.000000 0.000000 
lhumerus -17.074572 8.980799 87.662591 
lradius 41.478202 
lwrist -13.971169 
lhand -13.621048 -10.679956 
lfingers 0.000000 
lthumb 12.494439 18.926522 
rfemur -11.561021 -1.842026 29.775607 
rtibia 39.705220 
rfoot -10.794425 -7.810433 
rtoes 17.711421 
lfemur -9.549280 4.233415 -13.464651 
ltibia 70.682039 
lfoot -5.389866 13.062795 
ltoes 11.875816 
47
root -8.621118 15.931100 -19.889549 -11.010679 -8.361132 8.643568
lowerback 3.960599 1.911047 -3.828244 
upperback 6.813157 2.955104 -0.551965 
thorax 4.690125 1.480631 1.583206 
lowerneck -8.395265 -11.512376 -12.860581 
upperneck 21.826609 -16.171520 13.598946 
head 10.585968 -6.943717 4.888827 
rclavicle 0.000000 0.000000 
rhumerus -39.691758 -28.130845 -77.136598 
rradius 39.906815 
rwrist -4.531913 
rhand -17.033167 -0.202075 
rfingers 0.000000 
rthumb 9.203383 -29.981268 
lclavicle 0.000000 0.000000 
lhumerus -17.248578 10.011964 87.384408 
lradius 40.294501 
lwrist -14.542526 
lhand -13.247038 -10.660980 
lfingers 0.000000 
lthumb 12.855071 18.923202 
rfemur -11.143082 -1.714490 29.857107 
rtibia 39.607780 
rfoot -10.872415 -7.614415 
rtoes 17.772143 
lfemur -10.167687 3.518650 -13.684768 
ltibia 70.551201 
lfoot -5.751655 12.318949 
ltoes 10.974757 
48
root -8.640184 15.935872 -19.808778 -11.025480 -8.845872 8.604442
lowerback 3.860791 1.995916 -3.734537 
upperback 6.852365 3.073119 -0.517143 
thorax 4.783598 1.540323 1.572233 
lowerneck -8.532845 -11.522270 -12.723957 
upperneck 21.943840 -16.166452 13.414700 
head 10.623367 -6.939519 4.796208 
rclavicle 0.000000 0.000000 
rhumerus -39.444265 -27.985024 -77.329567 
rradius 40.299344 
rwrist -4.768044 
rhand -16.903088 -0.420910 
rfingers 0.000000 
rthumb 9.328822 -30.194489 
lclavicle 0.000000 0.000000 
lhumerus -17.364946 11.053835 87.182074 
lradius 39.124070 
lwrist -15.296666 
lhand -13.179435 -10.630115 
lfingers 0.000000 
lthumb 12.920155 18.949898 
rfemur -10.705664 -1.437343 30.007264 
rtibia 39.492377 
rfoot -10.931791 -7.440098 
rtoes 17.752525 
lfemur -10.700165 2.915505 -13.823654 
ltibia 70.346032 
lfoot -6.058864 11.622490 
ltoes 11.115513 
49
root -8.659770 15.938100 -19.734665 -11.081204 -9.242453 8.509876
lowerback 3.942487 1.999995 -3.611254 
upperback 6.867163 3.073087 -0.452366 
thorax 4.754548 1.544828 1.567338 
lowerneck -8.827783 -11.453246 -12.828118 
upperneck 22.214783 -16.041352 13.371082 
head 10.766593 -6.873624 4.808660 
rclavicle 0.000000 0.000000 
rhumerus -39.117882 -27.642649 -77.561990 
rradius 40.595826 
rwrist -5.264978 
rhand -16.969998 -0.500143 
rfingers 0.000000 
rthumb 9.264244 -30.276595 
lclavicle 0.000000 0.000000 
lhumerus -17.577903 12.218051 86.887372 
lradius 38.059509 
lwrist -16.330563 
lhand -13.102475 -10.304550 
lfingers 0.000000 
lthumb 12.994354 19.270692 
rfemur -10.238363 -1.115059 30.225560 
rtibia 39.386457 
rfoot -11.119757 -7.347607 
rtoes 18.162692 
lfemur -11.236304 2.201944 -13.911969 
ltibia 70.082391 
lfoot -6.106465 11.038820 
ltoes 9.417585 
50
root -8.679810 15.939357 -19.662369 -11.087114 -9.594436 8.482369
lowerback 4.015526 2.055919 -3.523161 
upperback 6.813601 3.139303 -0.475791 
thorax 4.658094 1.583157 1.488806 
lowerneck -8.815971 -11.432911 -12.783089 
upperneck 22.351867 -16.015737 13.323473 
head 10.801937 -6.855862 4.792544 
rclavicle 0.000000 0.000000 
rhumerus -38.967873 -27.558783 -77.773596 
rradius 40.782114 
rwrist -5.189594 
rhand -17.103472 -0.435759 
rfingers 0.000000 
rthumb 9.135508 -30.217906 
lclavicle 0.000000 0.000000 
lhumerus -17.892861 13.125731 86.506070 
lradius 37.023032 
lwrist -17.052349 
lhand -12.979773 -10.044238 
lfingers 0.000000 
lthumb 13.112721 19.523471 
rfemur -9.835238 -0.823920 30.372659 
rtibia 39.268223 
rfoot -11.304532 -7.251392 
rtoes 18.608441 
lfemur -11.832712 1.431908 -14.074329 
ltibia 69.786326 
lfoot -6.434274 10.461601 
ltoes 7.903953 
51
root -8.698398 15.941970 -19.587017 -11.097418 -9.977432 8.531382
lowerback 4.003540 2.131372 -3.527452 
upperback 6.793531 3.237200 -0.488801 
thorax 4.639231 1.631360 1.477124 
lowerneck -8.949876 -11.405225 -12.730338 
upperneck 22.558101 -15.978360 13.287839 
head 10.890313 -6.821905 4.776111 
rclavicle 0.000000 0.000000 
rhumerus -38.770493 -27.487341 -77.942937 
rradius 41.026276 
rwrist -5.317301 
rhand -17.226078 -0.385295 
rfingers 0.000000 
rthumb 9.017221 -30.172603 
lclavicle 0.000000 0.000000 
lhumerus -18.184273 14.146038 86.162936 
lradius 35.975260 
lwrist -17.912162 
lhand -13.113265 -9.871879 
lfingers 0.000000 
lthumb 12.984011 19.704047 
rfemur -9.439954 -0.597888 30.417396 
rtibia 39.153629 
rfoot -11.282407 -7.072924 
rtoes 18.573394 
lfemur -12.404706 0.687143 -14.316870 
ltibia 69.468720 
lfoot -6.885702 9.785173 
ltoes 7.164714 
52
root -8.717232 15.946206 -19.512373 -11.097147 -10.381099 8.536011
lowerback 4.012898 2.163484 -3.464206 
upperback 6.772388 3.275930 -0.491477 
thorax 4.612576 1.652939 1.437814 
lowerneck -9.089591 -11.372800 -12.622648 
upperneck 22.711979 -15.914682 13.125806 
head 10.938591 -6.789504 4.706839 
rclavicle 0.000000 0.000000 
rhumerus -38.535282 -27.286303 -78.180250 
rradius 41.292069 
rwrist -5.476752 
rhand -17.310748 -0.448329 
rfingers 0.000000 
rthumb 8.935507 -30.239120 
lclavicle 0.000000 0.000000 
lhumerus -18.460944 15.438627 85.736863 
lradius 34.923961 
lwrist -18.829084 
lhand -12.917331 -9.763777 
lfingers 0.000000 
lthumb 13.172910 19.799973 
rfemur -9.051954 -0.374717 30.512298 
rtibia 39.048628 
rfoot -11.293936 -6.901926 
rtoes 18.377580 
lfemur -12.979604 0.005965 -14.509335 
ltibia 69.092620 
lfoot -7.107038 9.316789 
ltoes 5.392116 
